<svg viewBox="110 90 300 330" xmlns="http://www.w3.org/2000/svg">
  <!-- PECH Labs logo v3 · Variante A: two-tone para fondos oscuros (transparente) -->
  <defs>
    <g id="pGlyph">
      <rect x="110" y="90" width="120" height="330" rx="44"/>
      <rect x="270" y="90" width="140" height="140" rx="44"/>
    </g>
    <path id="lSmall" d="M 294 250 H 306 A 24 24 0 0 1 330 274 V 344 A 16 16 0 0 0 346 360 H 386 A 24 24 0 0 1 410 384 V 396 A 24 24 0 0 1 386 420 H 294 A 24 24 0 0 1 270 396 V 274 A 24 24 0 0 1 294 250 Z"/>
    <g id="lMirror" transform="translate(680 0) scale(-1 1)">
      <use href="#lSmall"/>
    </g>
  </defs>
  <use href="#pGlyph" fill="#ff6a1a"/>
  <use href="#lMirror" fill="#ffa256"/>
</svg>
